<svg id="Capa_1" data-name="Capa 1" xmlns="http://www.w3.org/2000/svg" viewBox="0 0 56.69 56.69"><defs><style>.cls-1{fill:#67615a;}</style></defs><title>socials</title><path class="cls-1" d="M28.36,17.08c3.68,0,4.11,0,5.57.08a7.67,7.67,0,0,1,2.55.47,4.25,4.25,0,0,1,1.58,1,4.13,4.13,0,0,1,1,1.59,7.59,7.59,0,0,1,.48,2.55c.06,1.45.08,1.89.08,5.56s0,4.11-.08,5.56a7.74,7.74,0,0,1-.48,2.56,4.25,4.25,0,0,1-1,1.58,4.52,4.52,0,0,1-1.58,1,7.94,7.94,0,0,1-2.55.48c-1.46.06-1.89.08-5.57.08s-4.11,0-5.56-.08A7.89,7.89,0,0,1,20.25,39a4.47,4.47,0,0,1-1.59-1,4.25,4.25,0,0,1-1-1.58,7.49,7.49,0,0,1-.48-2.56c-.06-1.45-.08-1.88-.08-5.56s0-4.11.08-5.56a7.35,7.35,0,0,1,.48-2.55,4.44,4.44,0,0,1,2.61-2.62,7.63,7.63,0,0,1,2.55-.47c1.45-.07,1.89-.08,5.56-.08m0-2.48c-3.73,0-4.2,0-5.67.08a10,10,0,0,0-3.34.64,6.49,6.49,0,0,0-2.44,1.59,6.76,6.76,0,0,0-1.57,2.47,9.83,9.83,0,0,0-.67,3.39c-.06,1.47-.08,1.94-.08,5.67s0,4.21.08,5.68a10.1,10.1,0,0,0,.67,3.29A7,7,0,0,0,17,39.82a6.82,6.82,0,0,0,2.41,1.58A10,10,0,0,0,22.7,42c1.47.07,1.94.09,5.67.09s4.21,0,5.68-.09a10.13,10.13,0,0,0,3.31-.64,7,7,0,0,0,4-4A10,10,0,0,0,42,34.06c.07-1.47.09-1.94.09-5.68s0-4.2-.09-5.67a10,10,0,0,0-.64-3.34,7,7,0,0,0-4-4A10,10,0,0,0,34,14.73c-1.47-.06-1.94-.08-5.68-.08"/><path class="cls-1" d="M28.36,21.3a7.07,7.07,0,1,0,7.07,7.07h0a7.06,7.06,0,0,0-7.06-7.06h0m0,11.65A4.59,4.59,0,1,1,33,28.36h0A4.59,4.59,0,0,1,28.38,33h0"/><path class="cls-1" d="M37.36,21a1.65,1.65,0,1,1-1.65-1.66A1.66,1.66,0,0,1,37.36,21h0"/></svg>