<svg id="Capa_1" data-name="Capa 1" xmlns="http://www.w3.org/2000/svg" viewBox="0 0 56.69 56.69"><defs><style>.cls-1{fill:#67615a;}</style></defs><title>socials</title><path class="cls-1" d="M21.45,30.37a.52.52,0,0,0,.69-.2A.58.58,0,0,0,22.2,30c.07-.26.23-.92.3-1.19a.72.72,0,0,0-.21-.83,4.28,4.28,0,0,1-1-2.92,7,7,0,0,1,6.87-7.13h.45c4,0,6.19,2.44,6.19,5.7,0,4.28-1.9,7.9-4.72,7.9a2.31,2.31,0,0,1-2.42-2.18,2.22,2.22,0,0,1,.07-.68c.45-1.88,1.32-3.92,1.32-5.28a2,2,0,0,0-1.76-2.22h-.24c-1.59,0-2.87,1.64-2.87,3.85a5.59,5.59,0,0,0,.48,2.35s-1.63,6.9-1.91,8.11a16.49,16.49,0,0,0-.05,5.65.18.18,0,0,0,.21.16.17.17,0,0,0,.14-.08,15.76,15.76,0,0,0,2.69-4.86c.18-.67,1-4.09,1-4.09a4.25,4.25,0,0,0,3.63,1.85c4.78,0,8-4.36,8-10.19,0-4.41-3.73-8.52-9.41-8.52-7.07,0-10.63,5.07-10.63,9.29C18.41,27.25,19.38,29.54,21.45,30.37Z"/></svg>