<svg id="Capa_1" data-name="Capa 1" xmlns="http://www.w3.org/2000/svg" viewBox="0 0 56.69 56.69"><defs><style>.cls-1{fill:#67615a;}</style></defs><title>socials</title><path class="cls-1" d="M39.75,21.62c0-.12,0-.12-.13-.12a6.54,6.54,0,0,1-.89-.08c-1.06-.16-4.51-2-5.09-4.93a8.07,8.07,0,0,1-.14-1.1c0-.14,0-.14-.14-.14H29.22c-.27,0-.23,0-.23.24V33a4.62,4.62,0,0,1,0,.65,3.79,3.79,0,0,1-4.52,3.1,5.33,5.33,0,0,1-.88-.29l-.11-.07-.3-.22a3.74,3.74,0,0,1,2.18-6.86,4.48,4.48,0,0,1,.88.14c.1,0,.15,0,.16-.11V25c0-.09-.05-.1-.12-.11a9,9,0,0,0-1.64,0,8.72,8.72,0,0,0-2.2.47,8.29,8.29,0,0,0-4.74,4.39A7.8,7.8,0,0,0,17,32.6a6.84,6.84,0,0,0,0,1.28,8.16,8.16,0,0,0,3.15,5.75,1.84,1.84,0,0,0,.43.3h0l.21.18a3.48,3.48,0,0,0,.69.43A8.35,8.35,0,0,0,33.55,33V24.09s.12,0,.18.09a10.72,10.72,0,0,0,3.52,1.52,10.48,10.48,0,0,0,2.24.27c.24,0,.27,0,.27-.25C39.8,24.72,39.75,21.89,39.75,21.62Z"/></svg>