<svg id="Capa_1" data-name="Capa 1" xmlns="http://www.w3.org/2000/svg" viewBox="0 0 24.68 20.45"><defs><style>.cls-1{fill:#1d9bf0;}</style></defs><title>twitter_original-color</title><path class="cls-1" d="M16,36.42A14.57,14.57,0,0,0,38.17,23.07a10.41,10.41,0,0,0,2.51-2.7,10,10,0,0,1-2.93.87A5.19,5.19,0,0,0,40,18.37a10.53,10.53,0,0,1-3.23,1.3,5.13,5.13,0,0,0-8.64,4.83,14.48,14.48,0,0,1-10.65-5.15,5.12,5.12,0,0,0,1.7,6.8,5,5,0,0,1-2.33-.6,5.14,5.14,0,0,0,4.21,5,5,5,0,0,1-2.31.13,5.11,5.11,0,0,0,4.84,3.47A10.28,10.28,0,0,1,16,36.42Z" transform="translate(-16 -18.13)"/></svg>