<svg id="Capa_1" data-name="Capa 1" xmlns="http://www.w3.org/2000/svg" viewBox="0 0 56.69 56.69"><defs><style>.cls-1{fill:#67615a;}</style></defs><title>socials</title><path class="cls-1" d="M41.35,21.78A3.43,3.43,0,0,0,39,19.36c-2.12-.57-10.6-.57-10.6-.57s-8.49,0-10.6.57a3.41,3.41,0,0,0-2.4,2.42,36.06,36.06,0,0,0-.57,6.57,36.22,36.22,0,0,0,.57,6.57,3.43,3.43,0,0,0,2.4,2.42c2.11.57,10.6.57,10.6.57s8.48,0,10.6-.57a3.46,3.46,0,0,0,2.4-2.42,35.33,35.33,0,0,0,.56-6.57A35.19,35.19,0,0,0,41.35,21.78ZM25.57,32.38V24.32l7.09,4Z"/></svg>