<svg id="Capa_1" data-name="Capa 1" xmlns="http://www.w3.org/2000/svg" viewBox="0 0 374.44 27.53"><defs><style>.cls-1{fill:#67615a;}</style></defs><title>socials-icon</title><path class="cls-1" d="M13.74,37.39h5.55V23.51h3.86l.42-4.65H19.29V16.21c0-1.09.22-1.53,1.28-1.53h3V9.86H19.73c-4.13,0-6,1.82-6,5.29v3.71H10.86v4.7h2.88Z" transform="translate(-10.86 -9.86)"/><path class="cls-1" d="M87,12.34c3.68,0,4.11,0,5.57.08a7.78,7.78,0,0,1,2.55.47,4.29,4.29,0,0,1,1.58,1,4.2,4.2,0,0,1,1,1.59,7.44,7.44,0,0,1,.48,2.55c.06,1.45.08,1.89.08,5.56s0,4.11-.08,5.56a7.52,7.52,0,0,1-.48,2.56,4.17,4.17,0,0,1-1,1.58,4.29,4.29,0,0,1-1.58,1,7.7,7.7,0,0,1-2.55.48c-1.46.06-1.89.08-5.57.08s-4.11,0-5.56-.08a7.7,7.7,0,0,1-2.55-.48,4.32,4.32,0,0,1-1.59-1,4.26,4.26,0,0,1-1-1.58,7.52,7.52,0,0,1-.48-2.56c-.06-1.45-.08-1.88-.08-5.56s0-4.11.08-5.56a7.44,7.44,0,0,1,.48-2.55,4.48,4.48,0,0,1,2.61-2.62,7.78,7.78,0,0,1,2.55-.47c1.45-.07,1.89-.08,5.56-.08m0-2.48c-3.73,0-4.2,0-5.67.08a10.13,10.13,0,0,0-3.34.64,6.68,6.68,0,0,0-2.44,1.59A6.85,6.85,0,0,0,74,14.61,10.13,10.13,0,0,0,73.33,18c-.06,1.47-.08,1.94-.08,5.67s0,4.21.08,5.68A10.24,10.24,0,0,0,74,32.64a7,7,0,0,0,1.59,2.44A6.78,6.78,0,0,0,78,36.66a9.87,9.87,0,0,0,3.34.64c1.47.07,1.94.09,5.67.09s4.21,0,5.68-.09A10,10,0,0,0,96,36.66a6.95,6.95,0,0,0,4-4,10,10,0,0,0,.64-3.34c.07-1.47.09-1.94.09-5.68s0-4.2-.09-5.67a9.87,9.87,0,0,0-.64-3.34,7,7,0,0,0-4-4,10.24,10.24,0,0,0-3.34-.64c-1.47-.06-1.94-.08-5.68-.08" transform="translate(-10.86 -9.86)"/><path class="cls-1" d="M87,16.56a7.07,7.07,0,1,0,7.07,7.06A7.06,7.06,0,0,0,87,16.56m0,11.65a4.59,4.59,0,1,1,4.59-4.59A4.58,4.58,0,0,1,87,28.21" transform="translate(-10.86 -9.86)"/><path class="cls-1" d="M96,16.28a1.65,1.65,0,1,1-1.65-1.66A1.65,1.65,0,0,1,96,16.28" transform="translate(-10.86 -9.86)"/><path class="cls-1" d="M147.27,31.46a14.56,14.56,0,0,0,22.4-12.93,10.41,10.41,0,0,0,2.56-2.65,10.39,10.39,0,0,1-2.95.81,5.17,5.17,0,0,0,2.26-2.83,10.44,10.44,0,0,1-3.26,1.24,5.12,5.12,0,0,0-8.72,4.67A14.49,14.49,0,0,1,149,14.42a5.12,5.12,0,0,0,1.58,6.83,4.94,4.94,0,0,1-2.32-.64,5.14,5.14,0,0,0,4.11,5.09,5.11,5.11,0,0,1-2.31.09,5.12,5.12,0,0,0,4.78,3.55A10.28,10.28,0,0,1,147.27,31.46Z" transform="translate(-10.86 -9.86)"/><path class="cls-1" d="M244.49,17.88a3.45,3.45,0,0,0-2.4-2.42c-2.12-.57-10.6-.57-10.6-.57s-8.49,0-10.6.57a3.41,3.41,0,0,0-2.4,2.42,35.55,35.55,0,0,0-.57,6.57,35.55,35.55,0,0,0,.57,6.57,3.41,3.41,0,0,0,2.4,2.42c2.11.57,10.6.57,10.6.57s8.48,0,10.6-.57a3.45,3.45,0,0,0,2.4-2.42,36.17,36.17,0,0,0,.56-6.57A36.17,36.17,0,0,0,244.49,17.88Zm-15.78,10.6V20.42l7.09,4Z" transform="translate(-10.86 -9.86)"/><path class="cls-1" d="M368.3,24.83a.51.51,0,0,0,.75-.37c.07-.26.23-.92.3-1.19a.72.72,0,0,0-.21-.83,4.29,4.29,0,0,1-1-2.92,7,7,0,0,1,7.32-7.12c4,0,6.19,2.44,6.19,5.7,0,4.28-1.9,7.9-4.72,7.9a2.3,2.3,0,0,1-2.35-2.86c.45-1.88,1.32-3.92,1.32-5.28a2,2,0,0,0-2-2.23c-1.59,0-2.87,1.64-2.87,3.85a5.66,5.66,0,0,0,.48,2.35s-1.63,6.9-1.91,8.11a16.72,16.72,0,0,0-.05,5.65.19.19,0,0,0,.35.08,15.69,15.69,0,0,0,2.69-4.86c.18-.67,1-4.09,1-4.09a4.25,4.25,0,0,0,3.63,1.85c4.78,0,8-4.36,8-10.19,0-4.41-3.73-8.52-9.41-8.52-7.07,0-10.63,5.07-10.63,9.29C365.26,21.71,366.23,24,368.3,24.83Z" transform="translate(-10.86 -9.86)"/><path class="cls-1" d="M314.32,17.59c0-.12,0-.12-.13-.12a6.69,6.69,0,0,1-.89-.08c-1.06-.16-4.51-2-5.09-4.93a9.31,9.31,0,0,1-.14-1.1c0-.14,0-.14-.14-.14h-4.14c-.27,0-.23,0-.23.24q0,8.77,0,17.55a3.63,3.63,0,0,1-.05.65,3.72,3.72,0,0,1-1.76,2.62,3.76,3.76,0,0,1-2.76.48,5.66,5.66,0,0,1-.88-.29L298,32.4a3.3,3.3,0,0,0-.3-.22,3.74,3.74,0,0,1,2.18-6.86,4.36,4.36,0,0,1,.88.14c.1,0,.15,0,.16-.11v-.11c0-1,0-3.35,0-3.35,0-.31,0-.61,0-.91,0-.09-.05-.1-.12-.11a8.16,8.16,0,0,0-1.64,0,8.4,8.4,0,0,0-2.2.47,8.28,8.28,0,0,0-4.74,4.39,8,8,0,0,0-.7,2.84,7.81,7.81,0,0,0,0,1.28,8.62,8.62,0,0,0,.35,1.75,8.2,8.2,0,0,0,2.8,4,2.08,2.08,0,0,0,.43.3h0l.21.18a3.48,3.48,0,0,0,.69.43A8.35,8.35,0,0,0,308.12,29c0-2.91,0-5.82,0-8.74,0-.07,0-.17,0-.2s.12,0,.18.09a10.72,10.72,0,0,0,3.52,1.52,10.48,10.48,0,0,0,2.24.27c.24,0,.27,0,.27-.25C314.37,20.69,314.32,17.86,314.32,17.59Z" transform="translate(-10.86 -9.86)"/></svg>